<svg xmlns="http://www.w3.org/2000/svg" viewBox="0 0 200 200" fill="none" stroke="#18181b" stroke-width="2" stroke-linecap="round" stroke-linejoin="round">
  <path d="M30 160 Q 100 180 170 160 M32 163 Q 98 183 168 158 M28 157 Q 102 177 172 162" opacity="0.8" /> 
  <path d="M40 160 L40 60 M43 158 L42 62 M37 162 L38 58" opacity="0.9" />
  <path d="M160 160 L160 60 M163 158 L162 62 M157 162 L158 58" opacity="0.9" />
  <path d="M40 135 L160 135 M42 138 L158 137" />
  <path d="M40 80 L160 80 M42 83 L158 82" />
  <path d="M64 135 L64 80 M66 135 L65 80" />
  <path d="M88 135 L88 80 M90 135 L89 80" />
  <path d="M112 135 L112 80 M114 135 L113 80" />
  <path d="M136 135 L136 80 M138 135 L137 80" />
  <path d="M65 130 C70 95, 135 105, 135 135" fill="#18181b" fill-opacity="0.1" />
  <circle cx="85" cy="118" r="8" fill="#18181b" fill-opacity="0.8" />
  <path d="M82 118 Q85 120 88 118" stroke="white" stroke-width="1.5" />
  <path d="M100 90 l 10 0 l -10 10 l 10 0" stroke-width="1.5" />
  <path d="M115 80 l 8 0 l -8 8 l 8 0" stroke-width="1" />
  <path d="M130 95 l 6 0 l -6 6 l 6 0" stroke-width="1" />
</svg>
